<?xml version="1.0" standalone="no"?>
<!DOCTYPE svg PUBLIC "-//W3C//DTD SVG 20010904//EN"
 "http://www.w3.org/TR/2001/REC-SVG-20010904/DTD/svg10.dtd">
<svg version="1.0" xmlns="http://www.w3.org/2000/svg"
 width="512.000000pt" height="512.000000pt" viewBox="0 0 512.000000 512.000000"
 preserveAspectRatio="xMidYMid meet">

<g transform="translate(0.000000,512.000000) scale(0.100000,-0.100000)"
fill="#000000" stroke="none">
<path d="M2505 4756 c-16 -8 -269 -254 -562 -547 -458 -460 -533 -539 -538
-570 -21 -114 85 -212 195 -179 27 8 128 103 427 402 l393 393 0 -1395 c0
-976 3 -1407 11 -1435 37 -135 220 -158 281 -35 17 33 18 123 18 1445 l0 1410
383 -382 c441 -441 445 -444 547 -390 69 36 98 117 69 194 -15 42 -1035 1061
-1084 1084 -47 22 -98 24 -140 5z"/>
<path d="M490 2328 c-33 -17 -51 -35 -68 -68 l-23 -45 4 -655 c3 -594 5 -661
21 -715 66 -221 227 -390 440 -463 l81 -27 1610 0 1610 0 89 29 c167 55 305
172 385 325 77 149 74 118 78 848 4 634 3 654 -16 698 -21 48 -64 81 -118 91
-41 8 -118 -28 -147 -69 -21 -28 -21 -43 -26 -690 l-5 -662 -28 -57 c-37 -75
-104 -143 -175 -176 l-57 -27 -1585 0 -1585 0 -55 26 c-72 34 -140 101 -176
175 l-29 59 -5 662 c-5 648 -5 662 -26 690 -22 31 -97 73 -129 73 -11 0 -41
-10 -65 -22z"/>
</g>
</svg>
